<?xml version="1.0" standalone="no"?><!DOCTYPE svg PUBLIC "-//W3C//DTD SVG 1.1//EN" "http://www.w3.org/Graphics/SVG/1.1/DTD/svg11.dtd"><svg t="1751178742117" class="icon" viewBox="0 0 1024 1024" version="1.1" xmlns="http://www.w3.org/2000/svg" p-id="6804" xmlns:xlink="http://www.w3.org/1999/xlink" width="200" height="200"><path d="M510.4 510.4m-510.4 0a510.4 510.4 0 1 0 1020.8 0 510.4 510.4 0 1 0-1020.8 0Z" fill="#E0E4E8" p-id="6805"></path><path d="M984 921.6l-84.8-46.4-84.8 46.4c-16 8-25.6 25.6-25.6 43.2v40h222.4v-38.4c-1.6-19.2-11.2-35.2-27.2-44.8z" fill="#3673FF" p-id="6806"></path><path d="M1009.6 1022.4H787.2c-9.6 0-16-6.4-16-16v-40c0-24 12.8-46.4 33.6-57.6l84.8-46.4c4.8-3.2 11.2-3.2 16 0l84.8 46.4c20.8 11.2 33.6 33.6 33.6 57.6v40c1.6 8-4.8 16-14.4 16z m-206.4-32h190.4v-24c0-12.8-6.4-24-17.6-30.4l-78.4-43.2-78.4 43.2c-11.2 6.4-17.6 17.6-17.6 30.4v24h1.6z" fill="#183651" p-id="6807"></path><path d="M953.6 825.6c0 38.4-25.6 80-56 80s-56-43.2-56-80c0-38.4 25.6-57.6 56-57.6s56 19.2 56 57.6z" fill="#FFFFFF" p-id="6808"></path><path d="M897.6 921.6c-41.6 0-72-51.2-72-96 0-43.2 28.8-73.6 72-73.6s72 28.8 72 73.6-30.4 96-72 96z m0-137.6c-12.8 0-40 3.2-40 41.6 0 32 20.8 64 40 64s40-33.6 40-64c0-38.4-27.2-41.6-40-41.6z" fill="#183651" p-id="6809"></path><path d="M761.6 921.6l-84.8-46.4-84.8 46.4c-16 8-25.6 25.6-25.6 43.2v40h222.4v-38.4c-1.6-19.2-11.2-35.2-27.2-44.8z" fill="#3673FF" p-id="6810"></path><path d="M787.2 1022.4H564.8c-9.6 0-16-6.4-16-16v-40c0-24 12.8-46.4 33.6-57.6l84.8-46.4c4.8-3.2 11.2-3.2 16 0l84.8 46.4c20.8 11.2 33.6 33.6 33.6 57.6v40c1.6 8-6.4 16-14.4 16z m-206.4-32h190.4v-24c0-12.8-6.4-24-17.6-30.4l-78.4-43.2-78.4 43.2c-11.2 6.4-17.6 17.6-17.6 30.4v24h1.6z" fill="#183651" p-id="6811"></path><path d="M731.2 825.6c0 38.4-25.6 80-56 80s-56-43.2-56-80c0-38.4 25.6-57.6 56-57.6s56 19.2 56 57.6z" fill="#FFFFFF" p-id="6812"></path><path d="M675.2 921.6c-41.6 0-72-51.2-72-96 0-43.2 28.8-73.6 72-73.6s72 28.8 72 73.6-30.4 96-72 96z m0-137.6c-12.8 0-40 3.2-40 41.6 0 32 20.8 64 40 64s40-33.6 40-64c0-38.4-27.2-41.6-40-41.6z" fill="#183651" p-id="6813"></path><path d="M43.2 662.4h457.6v344H43.2z" fill="#FFFFFF" p-id="6814"></path><path d="M500.8 1022.4H43.2c-9.6 0-16-6.4-16-16V662.4c0-9.6 6.4-16 16-16h457.6c9.6 0 16 6.4 16 16v344c1.6 9.6-4.8 16-16 16z m-441.6-32h425.6V678.4H59.2v312z" fill="#183651" p-id="6815"></path><path d="M107.2 726.4h329.6v216H107.2z" fill="#FFFFFF" p-id="6816"></path><path d="M0 646.4h545.6v32H0z" fill="#183651" p-id="6817"></path><path d="M494.4 662.4v-68.8c-19.2-56-36.8-86.4-140.8-126.4l-172.8 4.8s-118.4 43.2-131.2 121.6v68.8h444.8z" fill="#F8E71C" p-id="6818"></path><path d="M494.4 678.4H51.2c-9.6 0-16-6.4-16-16v-68.8-1.6c12.8-86.4 136-132.8 140.8-134.4 1.6 0 3.2-1.6 4.8-1.6l172.8-4.8c1.6 0 4.8 0 6.4 1.6 107.2 41.6 129.6 75.2 150.4 136 0 1.6 1.6 3.2 1.6 4.8v68.8c0 8-8 16-17.6 16z m-427.2-32h411.2v-49.6c-16-48-30.4-75.2-128-113.6l-166.4 4.8c-16 6.4-107.2 44.8-118.4 107.2l1.6 51.2z" fill="#183651" p-id="6819"></path><path d="M217.6 414.4s3.2 35.2-36.8 59.2c0 0 94.4 67.2 172.8-4.8 0 0-24-16-24-60.8l-112 6.4z" fill="#E1E6E7" p-id="6820"></path><path d="M270.4 516.8c-54.4 0-96-30.4-99.2-32-4.8-3.2-6.4-8-6.4-12.8 0-4.8 3.2-9.6 8-12.8 30.4-19.2 28.8-44.8 28.8-44.8 0-4.8 1.6-8 4.8-11.2 3.2-3.2 6.4-4.8 11.2-4.8l112-6.4c4.8 0 8 1.6 11.2 4.8 3.2 3.2 4.8 8 4.8 11.2 0 35.2 16 48 17.6 48 3.2 3.2 6.4 8 6.4 12.8 0 4.8-1.6 9.6-4.8 12.8-27.2 22.4-59.2 35.2-94.4 35.2z m-60.8-46.4c14.4 6.4 36.8 14.4 60.8 14.4 22.4 0 41.6-6.4 60.8-19.2-6.4-9.6-12.8-22.4-16-43.2l-83.2 4.8c-1.6 12.8-8 28.8-22.4 43.2z" fill="#183651" p-id="6821"></path><path d="M182.4 352s16 73.6 86.4 84.8c0 0 72-1.6 96-99.2l14.4-24V256l-25.6-35.2-64-8-94.4 30.4-32 59.2 19.2 49.6z" fill="#FFFFFF" p-id="6822"></path><path d="M268.8 452.8h-3.2c-76.8-11.2-96-83.2-99.2-94.4l-20.8-48c-1.6-4.8-1.6-9.6 0-14.4l32-59.2c1.6-3.2 4.8-6.4 9.6-8l94.4-30.4c1.6 0 4.8-1.6 6.4 0l64 8c4.8 0 8 3.2 11.2 6.4l25.6 35.2c1.6 3.2 3.2 6.4 3.2 9.6v54.4c0 3.2 0 4.8-1.6 8l-12.8 22.4c-25.6 107.2-105.6 110.4-108.8 110.4z m-89.6-150.4l17.6 43.2c0 1.6 0 1.6 1.6 3.2 0 3.2 14.4 60.8 72 72 9.6-1.6 60.8-9.6 80-88 0-1.6 1.6-3.2 1.6-4.8l11.2-20.8v-48l-19.2-25.6-54.4-6.4-84.8 27.2-25.6 48z" fill="#183651" p-id="6823"></path><path d="M320 171.2c126.4 56 43.2 164.8 43.2 164.8 32-94.4-54.4-107.2-54.4-107.2-32 38.4-70.4 33.6-70.4 33.6-92.8 11.2-59.2 89.6-59.2 89.6-97.6-128 36.8-225.6 140.8-180.8z" fill="#E0E4E8" p-id="6824"></path><path d="M182.4 368c-4.8 0-9.6-1.6-12.8-6.4-52.8-67.2-40-121.6-27.2-145.6 20.8-43.2 70.4-70.4 123.2-70.4 20.8 0 41.6 4.8 60.8 12.8 41.6 19.2 67.2 44.8 76.8 78.4 14.4 56-24 108.8-25.6 110.4-4.8 6.4-12.8 8-20.8 4.8-6.4-3.2-9.6-11.2-8-19.2 8-25.6 8-44.8 0-60.8-8-14.4-24-20.8-33.6-24-32 30.4-65.6 32-75.2 32-22.4 3.2-36.8 11.2-44.8 22.4-9.6 16-3.2 36.8-1.6 43.2 1.6 3.2 3.2 4.8 3.2 8 1.6 6.4-6.4 14.4-14.4 14.4z m83.2-192c-41.6 0-80 20.8-94.4 52.8-9.6 17.6-9.6 38.4-3.2 60.8 0-1.6 1.6-3.2 3.2-4.8 12.8-20.8 35.2-35.2 68.8-38.4H244.8c6.4 0 32-1.6 54.4-28.8 3.2-4.8 9.6-6.4 14.4-4.8 1.6 0 40 6.4 60.8 38.4 0-3.2-1.6-4.8-1.6-8-6.4-24-25.6-43.2-59.2-56-14.4-8-32-11.2-48-11.2z" fill="#183651" p-id="6825"></path><path d="M468.8 16v342.4h104v118.4l230.4-118.4h206.4V16z" fill="#FFFFFF" p-id="6826"></path><path d="M563.2 491.2c-4.8-3.2-8-8-8-14.4v-104h-86.4c-9.6 0-16-6.4-16-16V16c0-9.6 6.4-16 16-16H1008c9.6 0 16 6.4 16 16v342.4c0 9.6-6.4 16-16 16H806.4l-227.2 118.4c-4.8 1.6-11.2 0-16-1.6z m-78.4-148.8h86.4c9.6 0 16 6.4 16 16v94.4l206.4-108.8c1.6-1.6 4.8-1.6 8-1.6H992V32H484.8v310.4z" fill="#183651" p-id="6827"></path><path d="M636.8 294.4h-102.4V80h411.2v214.4h-158.4l-150.4 78.4z" fill="#FFFFFF" p-id="6828"></path><path d="M164.8 857.6h32v32h-32zM256 857.6h32v32h-32z" fill="#183651" p-id="6829"></path><path d="M268.8 857.6h112v32h-112zM164.8 777.6h112v32h-112z" fill="#183651" p-id="6830"></path><path d="M256 777.6h32v32h-32zM348.8 777.6h32v32h-32z" fill="#183651" p-id="6831"></path><path d="M588.8 185.6a35.2 35.2 0 1 0 70.4 0 35.2 35.2 0 1 0-70.4 0Z" fill="#F8E71C" p-id="6832"></path><path d="M704 185.6a35.2 35.2 0 1 0 70.4 0 35.2 35.2 0 1 0-70.4 0Z" fill="#F8E71C" p-id="6833"></path><path d="M820.8 185.6a35.2 35.2 0 1 0 70.4 0 35.2 35.2 0 1 0-70.4 0Z" fill="#F8E71C" p-id="6834"></path></svg>